<svg xmlns="http://www.w3.org/2000/svg" viewBox="0 0 512 512" width="64" height="64">
  <circle cx="256" cy="256" r="240" fill="#3a56d4" />
  <g fill="#ffffff">
    <path d="M352 256c0 8.84-7.16 16-16 16h-48v48c0 8.84-7.16 16-16 16h-32c-8.84 0-16-7.16-16-16v-48h-48c-8.84 0-16-7.16-16-16v-32c0-8.84 7.16-16 16-16h48v-48c0-8.84 7.16-16 16-16h32c8.84 0 16 7.16 16 16v48h48c8.84 0 16 7.16 16 16v32z"/>
    <path d="M144 144l32 32-32 32-32-32z" />
    <path d="M368 368l-32-32 32-32 32 32z" />
  </g>
</svg>